<?xml version="1.0" encoding="UTF-8" standalone="no"?>
<!-- Generator: Adobe Illustrator 26.3.1, SVG Export Plug-In . SVG Version: 6.00 Build 0)  -->

<svg
   version="1.1"
   id="Camada_1"
   x="0px"
   y="0px"
   viewBox="0 0 466.2 157.57"
   style="enable-background:new 0 0 466.2 157.57;"
   xml:space="preserve"
   sodipodi:docname="LOGO_ODONTOCLINIC_BRANCO.svg"
   inkscape:version="1.2.1 (9c6d41e410, 2022-07-14)"
   xmlns:inkscape="http://www.inkscape.org/namespaces/inkscape"
   xmlns:sodipodi="http://sodipodi.sourceforge.net/DTD/sodipodi-0.dtd"
   xmlns="http://www.w3.org/2000/svg"
   xmlns:svg="http://www.w3.org/2000/svg"><defs
   id="defs88" /><sodipodi:namedview
   id="namedview86"
   pagecolor="#B77E4E"
   bordercolor="#000000"
   borderopacity="0.25"
   inkscape:showpageshadow="2"
   inkscape:pageopacity="0.0"
   inkscape:pagecheckerboard="0"
   inkscape:deskcolor="#d1d1d1"
   showgrid="false"
   inkscape:zoom="2.8099527"
   inkscape:cx="233.10001"
   inkscape:cy="78.826949"
   inkscape:window-width="1920"
   inkscape:window-height="991"
   inkscape:window-x="-9"
   inkscape:window-y="-9"
   inkscape:window-maximized="1"
   inkscape:current-layer="g83" />
<style
   type="text/css"
   id="style46">
	.st0{fill:#0857A6;}
	.st1{fill:#0C5AA7;}
	.st2{fill:#0A58A6;}
	.st3{fill:url(#SVGID_1_);}
</style>
<g
   id="g83">
	<path
   class="st0"
   d="M62.68,129.3c0-6.03,0-12.05,0-18.18c1.79,0,3.48,0,5.26,0c0,15.16,0,30.31,0,45.55c-1.59,0-3.2,0-4.9,0   c-0.22-1.48-0.01-3-0.13-4.5c-0.4-0.08-0.49,0.25-0.65,0.44c-4.84,5.77-12.61,6.3-18.43,2.58c-5.86-3.74-8.17-9.33-7.55-16.14   c0.46-4.98,2.68-9.07,6.8-11.98c5.83-4.11,13.89-3.99,19.06,1.93C62.26,129.14,62.34,129.33,62.68,129.3z M62.7,142.56   c0.06-4.7-1.04-7.44-3.12-9.8c-3.67-4.17-9.86-4.59-14.04-0.97c-4.96,4.29-5.48,12.33-1.1,17.2c3.67,4.1,9.5,4.65,13.83,1.26   C61.24,147.92,62.64,144.79,62.7,142.56z"
   id="path48"
   style="fill:#926123" />
	<path
   class="st1"
   d="M174.16,125.02c0,1.81,0,3.38,0,5.15c-7.1,0-14.15,0-21.11,0c-0.25,0.5-0.2,0.83-0.21,1.15   c0,4.29-0.03,8.57,0.01,12.86c0.03,2.98,1.12,5.48,3.79,7.03c5.01,2.9,12.26,0.34,12.45-6.72c0.03-1.06,0-2.12,0-3.24   c1.8,0,3.46,0,5.12,0c0.92,6.74-1.61,12.2-6.89,14.83c-5.58,2.78-14.27,1.74-18.07-5.13c-1.15-2.09-1.69-4.33-1.7-6.69   c-0.03-8.34-0.01-16.68-0.01-25.01c0-0.27,0.04-0.54,0.07-0.87c1.73,0,3.39,0,5.19,0c0,2.18,0,4.35,0,6.66   C159.97,125.02,166.99,125.02,174.16,125.02z"
   id="path50"
   style="fill:#926123" />
	<path
   class="st0"
   d="M74.66,141.05c-0.25-6.84,4.03-13.81,11.05-16.03c9.01-2.85,18.12,2.45,20.3,11.86   c1.21,5.25,0.31,10.17-3.02,14.51c-6.91,8.97-20.91,7.82-26.29-2.13C75.29,146.67,74.53,143.92,74.66,141.05z M79.97,140.93   c-0.04,1.95,0.39,3.8,1.24,5.53c3.37,6.91,11.89,8.23,16.93,2.64c4.38-4.86,3.93-12.65-0.66-17.07c-4.2-4.05-10.39-3.81-14.3,0.51   C81.01,134.91,80.01,137.74,79.97,140.93z"
   id="path52"
   style="fill:#926123" />
	<path
   class="st0"
   d="M195.95,157.42c-7.49,0.24-14.6-5.45-15.78-13.73c-0.9-6.31,0.88-11.78,5.83-15.87   c8.06-6.65,19.95-3.72,24.24,5.81c3.69,8.19,0.82,17.59-6.69,21.86C201.21,156.83,198.67,157.48,195.95,157.42z M206.53,141.24   c-0.01-3.08-0.84-5.7-2.6-7.99c-3.82-4.99-10.64-5.5-15.06-1.13c-4.6,4.55-4.76,12.46-0.34,17.22c3.92,4.21,10.25,4.36,14.36,0.35   C205.34,147.31,206.45,144.4,206.53,141.24z"
   id="path54"
   style="fill:#926123" />
	<path
   class="st0"
   d="M15.96,157.42c-7.57,0.19-14.45-5.49-15.7-13.51c-1-6.41,0.82-11.93,5.83-16.12   c6.89-5.76,17.16-4.37,22.47,2.89c5.7,7.79,3.89,19.01-3.92,24.19C22.03,156.6,19.14,157.51,15.96,157.42z M26.57,142.06   c0-3.99-0.88-6.6-2.64-8.88c-3.54-4.61-9.73-5.41-14.22-1.74c-5.49,4.49-6.07,13.66-0.24,18.7c3.75,3.24,8.83,3.31,12.7,0.22   C25.17,147.97,26.5,144.74,26.57,142.06z"
   id="path56"
   style="fill:#926123" />
	<path
   class="st2"
   d="M118.21,156.73c-1.7,0-3.32,0-5.04,0c0-10.53,0-21.02,0-31.48c0.22-0.2,0.46-0.18,0.69-0.18   c1.39,0,2.78,0,4.19,0c0.4,0.98,0.03,1.94,0.28,2.86c0.49,0.01,0.68-0.41,0.96-0.67c4.62-4.28,12.95-3.9,16.97,0.59   c2.22,2.48,3.23,5.47,3.29,8.69c0.12,6.56,0.04,13.13,0.03,19.69c0,0.13-0.06,0.26-0.11,0.49c-1.65,0.13-3.3,0.08-4.93,0.03   c-0.33-0.55-0.18-1.07-0.19-1.56c-0.03-6.1-0.04-12.2-0.04-18.29c0-0.9-0.18-1.76-0.44-2.6c-0.97-3.12-3.52-5.05-6.72-5.13   c-3.93-0.09-7,1.86-8.22,5.24c-0.45,1.24-0.57,2.53-0.56,3.84c0.01,5.63,0.01,11.27,0,16.9   C118.35,155.63,118.45,156.15,118.21,156.73z"
   id="path58"
   style="fill:#926123" />
	<path
   class="st0"
   d="M281.22,125.12c1.7,0,3.27,0,4.95,0c0,1,0,1.96,0,3.02c0.56-0.1,0.75-0.49,1.02-0.75   c4.88-4.64,14.08-4.13,17.96,1.52c1.46,2.12,2.33,4.49,2.36,7.04c0.08,6.8,0.04,13.6,0.04,20.4c0,0.09-0.05,0.18-0.1,0.35   c-1.58,0-3.19,0-4.83,0c-0.34-0.44-0.17-0.97-0.17-1.46c-0.01-5.68-0.01-11.36-0.01-17.04c0-1.12-0.09-2.24-0.36-3.32   c-0.77-3.09-2.68-5.11-5.87-5.61c-3.2-0.5-6.02,0.37-8.08,3.02c-1.12,1.44-1.64,3.09-1.64,4.93c0.02,5.96,0.01,11.92,0,17.88   c0,0.5,0.1,1.02-0.12,1.59c-1.67,0-3.37,0-5.13,0C281.22,146.17,281.22,135.71,281.22,125.12z"
   id="path60"
   style="fill:#926123" />
	<path
   class="st2"
   d="M241.13,146.85c1.92,0,3.72,0,5.65,0c-1.61,4.72-4.6,8.02-9.23,9.68c-9.82,3.51-20.14-3.09-21.32-13.46   c-0.89-7.78,3.34-14.66,9.45-17.43c7.86-3.57,18.02-0.12,21.02,9.16c-1.86,0-3.68,0-5.59,0c-0.37-0.54-0.76-1.18-1.22-1.75   c-3.59-4.54-10.98-5.34-15.62-0.01c-4.29,4.93-3.64,13.01,1.45,17.13c4.71,3.81,11.62,2.69,14.87-2.42   C240.77,147.47,240.93,147.19,241.13,146.85z"
   id="path62"
   style="fill:#926123" />
	<path
   class="st2"
   d="M353.37,146.85c1.91,0,3.71,0,5.64,0c-1.28,3.8-3.5,6.74-6.96,8.63c-9.45,5.17-21.11-0.24-23.29-10.79   c-1.64-7.92,1.96-15.6,8.91-18.94c7.29-3.51,17.34-0.93,20.98,8.13c0.11,0.28,0.35,0.56,0.18,0.97c-1.78,0-3.59,0-5.32,0   c-0.31-0.12-0.4-0.35-0.51-0.55c-3.73-6.37-12.88-6.85-17.32-0.18c-3.46,5.21-2.36,12.49,2.49,16.18   c4.76,3.62,11.4,2.46,14.64-2.58C352.99,147.47,353.15,147.19,353.37,146.85z"
   id="path64"
   style="fill:#926123" />
	<path
   class="st1"
   d="M253.21,156.72c0-15.21,0-30.38,0-45.62c1.69,0,3.35,0,5.11,0c0,15.18,0,30.37,0,45.62   C256.6,156.72,254.94,156.72,253.21,156.72z"
   id="path66"
   style="fill:#926123" />
	<path
   class="st2"
   d="M266.99,125.13c1.74,0,3.39,0,5.13,0c0,10.54,0,21.02,0,31.57c-1.71,0-3.37,0-5.13,0   C266.99,146.22,266.99,135.74,266.99,125.13z"
   id="path68"
   style="fill:#926123" />
	<path
   class="st2"
   d="M316.56,125.14c1.73,0,3.39,0,5.03,0c0.17,1.18,0.2,29.96,0.03,31.54c-1.64,0-3.3,0-5.06,0   C316.56,146.23,316.56,135.74,316.56,125.14z"
   id="path70"
   style="fill:#926123" />
	<path
   class="st1"
   d="M272.11,120.32c-1.75,0-3.41,0-5.17,0c0-2.05,0-4.07,0-6.18c1.68,0,3.37,0,5.17,0   C272.11,116.13,272.11,118.16,272.11,120.32z"
   id="path72"
   style="fill:#926123" />
	<path
   class="st1"
   d="M321.65,120.29c-1.68,0-3.34,0-5.1,0c0-2.01,0-4.02,0-6.14c1.63,0,3.32,0,5.1,0   C321.65,116.17,321.65,118.19,321.65,120.29z"
   id="path74"
   style="fill:#926123" />
	
		<linearGradient
   id="SVGID_1_"
   gradientUnits="userSpaceOnUse"
   x1="342.7297"
   y1="88.7472"
   x2="442.5623"
   y2="188.5798"
   gradientTransform="matrix(1 0 0 -1 0 190.1903)">
		<stop
   offset="0"
   style="stop-color:#0555A5"
   id="stop76" />
		<stop
   offset="1"
   style="stop-color:#00AEEF"
   id="stop78" />
	</linearGradient>
	<path
   class="st3"
   d="M466.2,30.75c-0.54-3.89-2.25-7.25-4.79-10.18c-4.57-5.27-10.48-8.33-17.04-10.33   c-4.64-1.64-9.43-2.05-14.3-1.8c-3.07-0.09-6.08,0.43-9.09,0.96c-2.13,0.38-4.27,0.73-6.31,1.52c-1.11,0.1-2.14,0.52-3.19,0.85   c-3.68,1.18-7.34,2.43-10.79,4.2c-3.32,1.26-6.36,3.09-9.5,4.7c-1.66-1.54-3.02-3.32-4.79-4.67c-0.11-0.15-0.2-0.31-0.33-0.44   c-4.64-4.36-9.54-8.38-14.95-11.74c-2.45-1.52-5.06-2.7-7.93-3.21c-1.47-0.51-3-0.6-4.53-0.62c-3.15-0.03-6.19,0.44-8.93,2.15   c-2.31,1.14-3.99,2.98-5.43,5.04c-1.87,2.67-3,5.69-4,8.77c-1.34,4.45-1.63,9.01-1.39,13.61c0.07,1.43,0.1,2.88,0.51,4.28   c0.15,2.49,0.67,4.92,1.27,7.33c1.1,4.43,2.58,8.75,4.27,13c0.16,0.41,0.49,0.81,0.33,1.36c-0.81,0.95-1.78,1.82-2.53,2.88   c-0.76,0.55-1.27,1.34-1.85,2.04c-2.28,2.73-4.49,5.51-6.26,8.6c-0.84,1-1.47,2.14-2.07,3.28c-2.27,4.31-3.29,8.87-2.39,13.72   c0.84,4.59,4.09,7.85,8.63,8.75c3.77,0.75,7.38-0.08,10.96-1.15c0.18-0.01,0.37,0.01,0.55-0.03c3.96-0.98,7.92-1.95,11.79-3.27   c0.98-0.01,1.83-0.66,2.86-0.63c0.31,0.41,0.62,0.82,0.92,1.22c5.79,7.87,12.05,15.33,19.14,22.08c2.37,2.26,4.74,4.54,7.51,6.34   c2.61,2.19,5.5,3.93,8.63,5.27c3.26,1.4,6.34,0.85,9.33-0.81c0.35,0.01,0.62-0.2,0.9-0.35c4.08-2.26,7.67-5.16,10.9-8.51   c2.75-2.52,5.3-5.24,7.66-8.14c2.37-2.65,4.62-5.39,6.6-8.35c2.29-2.83,4.33-5.82,6.14-8.97c0.17-0.21,0.37-0.41,0.51-0.65   c2.06-3.32,4.01-6.7,5.73-10.21c1.18-2.42,2.44-4.8,3.25-7.38c2.18-4.71,2.4-9.35-0.58-13.9c1.01-0.75,2.27-1.08,3.09-2.06   c0.32,0.08,0.52-0.16,0.73-0.32c3.76-2.73,6.33-6.38,8.23-10.55c1.1-1.94,1.68-4.07,2.24-6.2   C466.03,37.72,466.22,30.85,466.2,30.75z M348.91,15.45c1.01-2.48,2.32-4.74,4.51-6.39c3.76-1.88,7.45-1.29,11.11,0.31   c1.55,0.68,2.95,1.64,4.44,2.44c2.24,1.8,4.64,3.39,6.82,5.27c2.78,2.39,5.53,4.81,8.01,7.52c0.12,0.13,0.22,0.28,0.33,0.43   c-1.69,1.21-3.34,2.4-5,3.59c-4.12,2.77-8.18,5.63-12.11,8.66c-1.55,0.94-2.95,2.09-4.37,3.2c-2.01,1.57-4.1,3.03-5.95,4.8   c-1.18,0.59-2.01,1.62-3.03,2.4c-0.69,0.53-1.22,1.27-2.15,1.69c-3.01-8.12-5.18-16.32-4.71-25.03   C347.1,21.29,347.75,18.31,348.91,15.45z M345.82,86.62c-0.94,0-1.81,0.36-2.73,0.47c-3.96,0.49-5.57-0.93-5.27-5.11   c0.16-2.29,0.9-4.43,2.01-6.44c2.14-3.52,4.6-6.82,7.13-10.07c0.63-0.67,1.26-1.34,2.02-2.14c3.34,6.69,6.97,13.08,11.06,19.27   c-0.56,0.5-1.31,0.46-1.91,0.77C354.04,84.46,349.93,85.54,345.82,86.62z M367.56,79.53c-2.73-4.04-5.28-8.18-7.66-12.43   c-1.78-3.2-3.54-6.41-4.98-9.78c1.54-1.66,3.24-3.16,4.95-4.66c0.51-0.45,1.27-0.56,1.62-1.22c3.17-2.45,6.35-4.91,9.52-7.36   c1.5-1.07,3.01-2.14,4.5-3.22c2.43-1.75,4.85-3.51,7.28-5.27c1.86-1.05,3.51-2.42,5.3-3.59c0.5-0.33,1-0.67,1.42-0.95   c0.56,0,0.74,0.36,1,0.62c1.88,1.87,3.7,3.8,5.65,5.6c1.49,1.38,3.01,2.74,4.71,3.88c2.88,2.5,6.08,4.56,9.32,6.55   c4.87,3,10.12,5.21,15.4,7.37c0.08,0.03,0.18,0,0.28-0.01c0.29,0.5-0.27,0.52-0.44,0.77c-0.35,0.12-0.71,0.2-1.04,0.36   c-4.47,2.19-8.93,4.39-13.4,6.59c-3.07,1.41-6.14,2.81-9.21,4.23c-1.67,0.78-3.42,1.4-5.02,2.32c-0.86,0.05-1.53,0.6-2.29,0.91   c-3.08,1.23-6.13,2.56-9.18,3.85c-2.93,1.02-5.84,2.09-8.69,3.3c-2.72,0.76-5.33,1.81-7.97,2.78   C368.03,80.35,367.83,79.92,367.56,79.53z M445.53,66.4c-0.53,1.93-1.39,3.73-2.21,5.55c-1.34,2.96-2.85,5.83-4.45,8.65   c-0.27,0.48-0.62,0.93-0.76,1.48c-1.06,1.33-1.81,2.86-2.74,4.27c-1.12,1.69-2.23,3.39-3.34,5.08c-2.28,2.97-4.56,5.93-6.84,8.9   c-2.39,2.62-4.77,5.24-7.16,7.86c-1.58,1.43-3.14,2.89-4.74,4.29c-2.07,1.8-4.32,3.35-6.72,4.67c-1.15,0.49-2.21,0.31-3.33-0.23   c-2.96-1.43-5.57-3.37-8.08-5.45c-5.79-4.81-10.87-10.31-15.7-16.06c-0.45-0.53-0.83-1.12-1.39-1.55   c-1.74-2.27-3.48-4.54-5.24-6.83c0.08-0.13,0.42-0.05,0.47-0.33c2.42-0.47,4.63-1.58,6.96-2.31c2.93-1.01,5.83-2.09,8.68-3.34   c4.02-1.41,7.86-3.25,11.77-4.95c4.77-1.92,9.42-4.08,14-6.41c2.92-1.18,5.66-2.74,8.51-4.1c2.1-1,4.09-2.23,6.3-3   c2.03-0.64,4.04-1.38,6.14-1.77c2.11-0.39,4.22-0.66,6.36-0.21C445.28,61.3,446.42,63.13,445.53,66.4z M456.17,41.77   c-1.21,2.61-2.98,4.77-5.12,6.65c-3.43,2.56-7.32,3.2-11.48,2.78c-6.18-1.53-12.09-3.81-17.88-6.43c-0.55-0.25-1.1-0.47-1.66-0.71   c-4.14-2.11-8.1-4.5-11.86-7.25c-4.1-3-7.85-6.37-11.35-10.12c2.37-1.25,4.55-2.74,7.08-3.57c0.25-0.08,0.47-0.27,0.71-0.4   c1.98-0.76,3.96-1.53,5.94-2.28c2.63-0.99,5.36-1.66,8.04-2.5c1.54-0.29,3.08-0.6,4.62-0.86c3.74-0.63,7.51-0.92,11.31-0.8   c1.41,0.21,2.85,0.34,4.24,0.64c3.97,0.85,7.72,2.28,11.22,4.35c0.24,0.14,0.49,0.26,0.74,0.38c1.89,1.42,3.75,2.85,5.2,4.76   c2.3,3.04,2.99,6.39,2.19,10.09c-0.03,0.13-0.01,0.28-0.02,0.41C457.45,38.54,456.9,40.18,456.17,41.77z"
   id="path81"
   style="fill:#926123" />
</g>
</svg>
